{
  "asset": {
    "generator": "Khronos glTF Blender I/O v1.5.17",
    "version": "2.0"
  },
  "scene": 0,
  "scenes": [
    {
      "name": "Scene",
      "nodes": [
        0
      ]
    }
  ],
  "nodes": [
    {
      "mesh": 0,
      "name": "sphere_gltf"
    }
  ],
  "materials": [
    {
      "doubleSided": true,
      "name": "gravel_ground_01",
      "normalTexture": {
        "index": 0
      },
      "pbrMetallicRoughness": {
        "baseColorTexture": {
          "index": 1
        },
        "metallicFactor": 0,
        "metallicRoughnessTexture": {
          "index": 2
        }
      }
    }
  ],
  "meshes": [
    {
      "name": "Sphere.001",
      "primitives": [
        {
          "attributes": {
            "POSITION": 0,
            "NORMAL": 1,
            "TEXCOORD_0": 2
          },
          "indices": 3,
          "material": 0
        }
      ]
    }
  ],
  "textures": [
    {
      "sampler": 0,
      "source": 0
    },
    {
      "sampler": 0,
      "source": 1
    },
    {
      "sampler": 0,
      "source": 2
    }
  ],
  "images": [
    {
      "mimeType": "image/jpeg",
      "name": "gravel_ground_01_nor_gl_4k",
      "uri": "textures/gravel_ground_01_nor_gl_1k.jpg"
    },
    {
      "mimeType": "image/jpeg",
      "name": "gravel_ground_01_diff_4k",
      "uri": "textures/gravel_ground_01_diff_1k.jpg"
    },
    {
      "mimeType": "image/jpeg",
      "name": "gravel_ground_01_rough_4k",
      "uri": "textures/gravel_ground_01_rough_1k.jpg"
    }
  ],
  "accessors": [
    {
      "bufferView": 0,
      "componentType": 5126,
      "count": 53944,
      "max": [
        1.5075510740280151,
        1.5055124759674072,
        1.5017685890197754
      ],
      "min": [
        -1.507561206817627,
        -1.5045477151870728,
        -1.501758337020874
      ],
      "type": "VEC3"
    },
    {
      "bufferView": 1,
      "componentType": 5126,
      "count": 53944,
      "type": "VEC3"
    },
    {
      "bufferView": 2,
      "componentType": 5126,
      "count": 53944,
      "type": "VEC2"
    },
    {
      "bufferView": 3,
      "componentType": 5123,
      "count": 322170,
      "type": "SCALAR"
    }
  ],
  "bufferViews": [
    {
      "buffer": 0,
      "byteLength": 647328,
      "byteOffset": 0
    },
    {
      "buffer": 0,
      "byteLength": 647328,
      "byteOffset": 647328
    },
    {
      "buffer": 0,
      "byteLength": 431552,
      "byteOffset": 1294656
    },
    {
      "buffer": 0,
      "byteLength": 644340,
      "byteOffset": 1726208
    }
  ],
  "samplers": [
    {
      "magFilter": 9729,
      "minFilter": 9987
    }
  ],
  "buffers": [
    {
      "byteLength": 2370548,
      "uri": "gravel_ground_01.bin"
    }
  ]
}